<svg xmlns="http://www.w3.org/2000/svg" viewBox="0 0 109.54 120.58"><g id="Layer_2" data-name="Layer 2"><g id="Layer_1-2" data-name="Layer 1"><path d="M73.57,5.81A30.2,30.2,0,0,1,103.73,36V84.61a30.2,30.2,0,0,1-30.16,30.16H36A30.2,30.2,0,0,1,5.81,84.61V36A30.2,30.2,0,0,1,36,5.81h37.6m0-5.81H36A36,36,0,0,0,0,36V84.61a36,36,0,0,0,36,36h37.6a36,36,0,0,0,36-36V36a36,36,0,0,0-36-36Z"/><path d="M59.6,46.49H50.52V57.83H59.6c4.17,0,6.75-1.95,6.75-5.64S63.78,46.49,59.6,46.49Z"/><path d="M73.57,11.62H36A24.35,24.35,0,0,0,11.62,36V84.61A24.35,24.35,0,0,0,36,109h37.6A24.35,24.35,0,0,0,97.92,84.61V36A24.35,24.35,0,0,0,73.57,11.62ZM59.88,68.2H50.52V84.65H38.9V46.49H30.19L36,35.95H59.78c12,0,18.4,6.47,18.4,16.25C78.18,61.8,71.82,68.2,59.88,68.2Z"/></g></g></svg>
